<?xml version="1.0" encoding="UTF-8"?>
<svg id="Calque_1" data-name="Calque 1" xmlns="http://www.w3.org/2000/svg" xmlns:xlink="http://www.w3.org/1999/xlink" viewBox="0 0 382.87 352.66">
  <defs>
    <style>
      .cls-1 {
        fill: url(#linear-gradient);
      }
    </style>
    <linearGradient id="linear-gradient" x1="0" y1="176.33" x2="382.87" y2="176.33" gradientUnits="userSpaceOnUse">
      <stop offset="0" stop-color="#46ac36"/>
      <stop offset="1" stop-color="#77bb5d"/>
    </linearGradient>
  </defs>
  <path class="cls-1" d="m326.12,1.03L37.35,61.89C15.58,66.47,0,85.68,0,107.92v136.81c0,22.25,15.58,41.45,37.35,46.04l9.65,2.03L117.51,93.32c3.34-8.54,9.65-12.82,18.94-12.82h21.72l-89.46,268.59h0s30.94-25.08,30.94-25.08c12.46-10.09,28.8-14.04,44.49-10.73l181.98,38.35c29.25,6.16,56.75-16.15,56.75-46.04V47.07c0-29.89-27.51-52.2-56.75-46.04Zm-130.61,271.13l-38.66-118.14,17.94-53.87,62.5,172.01h-41.78Zm107.09,0h-39v-122.76c0-5.2,1.86-9.65,5.57-13.37,3.72-3.71,8.17-5.57,13.37-5.57h20.06v141.7Zm0-161.01h-20.06c-5.2,0-9.65-1.86-13.37-5.57-3.71-3.72-5.57-8.17-5.57-13.37v-11.7h39v30.64Z"/>
</svg>